<?xml version="1.0" standalone="no"?><!DOCTYPE svg PUBLIC "-//W3C//DTD SVG 1.1//EN" "http://www.w3.org/Graphics/SVG/1.1/DTD/svg11.dtd"><svg t="1589104678892" class="icon" viewBox="0 0 1024 1024" version="1.1" xmlns="http://www.w3.org/2000/svg" p-id="2000" xmlns:xlink="http://www.w3.org/1999/xlink" width="64" height="64"><defs><style type="text/css"></style></defs><path d="M521.92 19.2c9.472 0 18.816 2.112 27.328 5.952 0.832 0.384 1.792 0.768 2.56 1.28a72.64 72.64 0 0 1 17.92 13.312l261.824 269.952c12.608 12.992 19.2 30.528 19.2 48.768v577.024c0 38.336-29.44 69.312-66.88 69.312H196.8A69.312 69.312 0 0 1 128 935.488V88.512C128 50.176 159.296 19.2 196.8 19.2z m-33.024 69.312H195.84v846.976h587.072V388.8H557.696A69.312 69.312 0 0 1 488.96 319.488v-231.04zM400.832 521.6a25.6 25.6 0 0 1-4.032 36.352l-80.128 63.36 80.896 69.248a25.6 25.6 0 0 1 2.624 36.48 26.368 26.368 0 0 1-36.864 2.56l-88.832-75.968a42.688 42.688 0 0 1 1.28-66.176l88.32-69.824a26.368 26.368 0 0 1 36.736 3.968z m209.408-6.848l4.48 2.88 88.32 69.888a42.688 42.688 0 0 1 6.72 60.48l-2.56 2.944-2.88 2.688-88.832 75.968a26.368 26.368 0 0 1-36.928-2.56 25.6 25.6 0 0 1-0.96-32.64l3.584-3.84 80.96-69.184-80.192-63.424a25.6 25.6 0 0 1-4.032-36.352 26.368 26.368 0 0 1 32.32-6.848zM494.72 512c18.112 0 32.832 13.696 32.832 30.528v162.88c0 16.832-14.72 30.528-32.832 30.528-18.176 0-32.896-13.696-32.896-30.528V542.528c0-16.832 14.72-30.528 32.896-30.528z m62.08-386.56v194.048h189.248L556.736 125.44z" p-id="2001"></path></svg>