<?xml version="1.0" standalone="no"?><!DOCTYPE svg PUBLIC "-//W3C//DTD SVG 1.1//EN" "http://www.w3.org/Graphics/SVG/1.1/DTD/svg11.dtd"><svg t="1586942594359" class="icon" viewBox="0 0 1168 1024" version="1.1" xmlns="http://www.w3.org/2000/svg" p-id="18958" xmlns:xlink="http://www.w3.org/1999/xlink" width="73" height="64"><defs><style type="text/css"></style></defs><path d="M892.762226 22.239256A44.478512 44.478512 0 0 0 854.249067 0H314.39767a44.478512 44.478512 0 0 0-38.513159 22.239256L5.952271 489.760744a44.478512 44.478512 0 0 0 0 44.478512l269.93224 467.521488a44.478512 44.478512 0 0 0 38.513159 22.239256H854.249067a44.478512 44.478512 0 0 0 38.513159-22.239256l269.93224-467.521488a44.478512 44.478512 0 0 0 0-44.478512zM854.249067 979.521488H314.39767L44.478512 512 314.39767 44.478512H854.249067l269.919158 467.521488z" p-id="18959"></path><path d="M584.32991 317.995196c-106.970821 0-194.004804 87.033982-194.004804 194.004804s87.033982 194.004804 194.004804 194.004804S778.373959 618.970821 778.373959 512s-87.073228-194.004804-194.044049-194.004804z m0 343.531096A149.526292 149.526292 0 1 1 733.895447 512a149.696356 149.696356 0 0 1-149.565537 149.526292z" p-id="18960"></path></svg>