<?xml version="1.0" standalone="no"?><!DOCTYPE svg PUBLIC "-//W3C//DTD SVG 1.1//EN" "http://www.w3.org/Graphics/SVG/1.1/DTD/svg11.dtd"><svg t="1586931936937" class="icon" viewBox="0 0 1024 1024" version="1.1" xmlns="http://www.w3.org/2000/svg" p-id="4870" xmlns:xlink="http://www.w3.org/1999/xlink" width="64" height="64"><defs><style type="text/css"></style></defs><path d="M606.185103 1023.975441c-29.469172 0-57.18849-11.480472-78.015841-32.329313L32.375362 495.852228c-22.790052-22.790052-34.462906-54.307883-32.009018-86.466304l21.979594-285.549501c4.203742-54.628178 46.90324-97.338932 101.531418-101.542674l285.539268-21.958104c32.606629-2.400676 63.676252 9.16473 86.487793 31.987528l495.7939 495.7939c43.019793 43.030026 42.998303 113.023146 0 156.031683L684.200944 991.646128C663.373593 1012.494968 635.654274 1023.975441 606.185103 1023.975441zM417.910065 43.707454c-1.706875 0-3.413749 0.074701-5.121648 0.202615L127.249149 65.868173c-32.990369 2.539846-58.788941 28.328185-61.328787 61.318554L43.940768 412.725996c-1.472538 19.418258 5.569856 38.452777 19.333324 52.227502l495.7939 495.7939c25.180496 25.180496 69.053726 25.180496 94.234221 0l307.497373-307.497373c25.969465-25.969465 25.969465-68.242244 0-94.234221L465.004663 63.221904C452.414927 50.6424 435.684894 43.707454 417.910065 43.707454zM271.031856 358.310665c-23.409153 0-45.345768-9.069563-61.798485-25.532513-16.452717-16.441461-25.521257-38.389332-25.521257-61.787228s9.069563-45.345768 25.521257-61.808718 38.389332-25.532513 61.798485-25.532513c23.387663 0 45.345768 9.069563 61.798485 25.532513 16.452717 16.46295 25.521257 38.410821 25.521257 61.808718s-9.069563 45.345768-25.521257 61.798485C316.377624 349.241103 294.41952 358.310665 271.031856 358.310665zM271.031856 227.352031c-11.736299 0-22.705118 4.524037-30.898731 12.728906s-12.717649 19.183921-12.717649 30.909987c0 11.714809 4.502547 22.683628 12.717649 30.877241 16.388249 16.420995 45.367257 16.431228 61.798485 0.010233 8.215102-8.204869 12.717649-19.173688 12.717649-30.888498 0-11.726066-4.524037-22.705118-12.717649-30.909987C293.715485 231.876068 282.747689 227.352031 271.031856 227.352031z" p-id="4871"></path></svg>